<?xml version="1.0" encoding="utf-8"?>
<!-- Generator: Adobe Illustrator 15.0.2, SVG Export Plug-In . SVG Version: 6.00 Build 0)  -->
<!DOCTYPE svg PUBLIC "-//W3C//DTD SVG 1.1//EN" "http://www.w3.org/Graphics/SVG/1.1/DTD/svg11.dtd">
<svg version="1.1"
	 id="svg2" xmlns:svg="http://www.w3.org/2000/svg" xmlns:sodipodi="http://sodipodi.sourceforge.net/DTD/sodipodi-0.dtd" xmlns:rdf="http://www.w3.org/1999/02/22-rdf-syntax-ns#" xmlns:inkscape="http://www.inkscape.org/namespaces/inkscape" xmlns:dc="http://purl.org/dc/elements/1.1/" xmlns:cc="http://creativecommons.org/ns#" inkscape:output_extension="org.inkscape.output.svg.inkscape" sodipodi:version="0.32" inkscape:version="0.46" inkscape:export-xdpi="76.235291" inkscape:export-ydpi="76.235291"
	 xmlns="http://www.w3.org/2000/svg" xmlns:xlink="http://www.w3.org/1999/xlink" x="0px" y="0px" width="200px" height="200px"
	 viewBox="225.707 135.722 200 200" enable-background="new 225.707 135.722 200 200" xml:space="preserve">
<defs>
	
	
		<inkscape:perspective  id="perspective292" inkscape:vp_x="0 : 526.18109 : 1" inkscape:vp_y="0 : 1000 : 0" inkscape:vp_z="744.09448 : 526.18109 : 1" sodipodi:type="inkscape:persp3d" inkscape:persp3d-origin="372.04724 : 350.78739 : 1">
		</inkscape:perspective>
</defs>
<sodipodi:namedview  id="base" bordercolor="#666666" borderopacity="1.0" inkscape:cx="322.54704" inkscape:cy="751.29245" inkscape:zoom="0.45153253" pagecolor="#ffffff" showgrid="false" showguides="true" inkscape:window-y="0" inkscape:window-x="0" inkscape:window-width="1276" inkscape:window-height="776" inkscape:pageshadow="2" inkscape:pageopacity="0.0" inkscape:guide-bbox="true" inkscape:document-units="px" inkscape:current-layer="layer1">
	<sodipodi:guide  id="guide2280" orientation="horizontal" position="545.21834"></sodipodi:guide>
	<sodipodi:guide  id="guide2282" orientation="vertical" position="308.46382"></sodipodi:guide>
	<sodipodi:guide  id="guide2284" orientation="vertical" position="712.54005"></sodipodi:guide>
	<sodipodi:guide  id="guide2286" orientation="horizontal" position="133.17442"></sodipodi:guide>
	<sodipodi:guide  id="guide2491" orientation="horizontal" position="900.35012"></sodipodi:guide>
	<sodipodi:guide  id="guide2495" orientation="vertical" position="414.32041"></sodipodi:guide>
	<sodipodi:guide  id="guide2497" orientation="horizontal" position="154.80103"></sodipodi:guide>
	<sodipodi:guide  id="guide2396" orientation="horizontal" position="936.7739"></sodipodi:guide>
	<sodipodi:guide  id="guide2398" orientation="vertical" position="-66.018088"></sodipodi:guide>
	<sodipodi:guide  id="guide2400" orientation="vertical" position="785.38759"></sodipodi:guide>
	<sodipodi:guide  id="guide2402" orientation="horizontal" position="86.50646"></sodipodi:guide>
	<sodipodi:guide  id="guide8136" orientation="horizontal" position="896.9354"></sodipodi:guide>
</sodipodi:namedview>
<g id="g10428">
	<rect id="rect2300" x="247.038" y="156.656" fill="none" width="157.337" height="157.336"/>
	
		<linearGradient id="rect4173_1_" gradientUnits="userSpaceOnUse" x1="619.2314" y1="1173.0054" x2="619.2314" y2="1121.8667" gradientTransform="matrix(1.0192 0 0 -0.4966 -305.4448 876.777)">
		<stop  offset="0" style="stop-color:#000000;stop-opacity:0"/>
		<stop  offset="0.5" style="stop-color:#000000"/>
		<stop  offset="1" style="stop-color:#000000;stop-opacity:0"/>
	</linearGradient>
	
		<rect id="rect4173" x="273.889" y="294.313" opacity="0.4021" fill="url(#rect4173_1_)" enable-background="new    " width="103.633" height="25.394"/>
	
		<radialGradient id="path5058_1_" cx="670.5166" cy="1147.7368" r="24.6674" gradientTransform="matrix(1.0192 0 0 -0.4966 -305.2446 876.777)" gradientUnits="userSpaceOnUse">
		<stop  offset="0" style="stop-color:#000000"/>
		<stop  offset="1" style="stop-color:#000000;stop-opacity:0"/>
	</radialGradient>
	<path id="path5058" sodipodi:nodetypes="cccc" opacity="0.4021" fill="url(#path5058_1_)" enable-background="new    " d="
		M377.522,294.313v25.393c11.053,0.047,26.721-5.689,26.721-12.698C404.243,299.999,391.909,294.313,377.522,294.313z"/>
	
		<radialGradient id="path5018_1_" cx="731.1855" cy="1147.7368" r="24.6673" gradientTransform="matrix(-1.0192 0 0 -0.4966 1018.4937 876.777)" gradientUnits="userSpaceOnUse">
		<stop  offset="0" style="stop-color:#000000"/>
		<stop  offset="1" style="stop-color:#000000;stop-opacity:0"/>
	</radialGradient>
	<path id="path5018" sodipodi:nodetypes="cccc" opacity="0.4021" fill="url(#path5018_1_)" enable-background="new    " d="
		M273.889,294.313v25.393c-11.053,0.047-26.72-5.689-26.72-12.698C247.169,299.999,259.503,294.313,273.889,294.313z"/>
	
		<radialGradient id="rect15391_1_" cx="312.7197" cy="438.0415" r="16.0486" gradientTransform="matrix(16.2974 0 0 -17.7274 -4744.0176 8045.2344)" gradientUnits="userSpaceOnUse">
		<stop  offset="0" style="stop-color:#FFFFFF"/>
		<stop  offset="1" style="stop-color:#BABDB6;stop-opacity:0"/>
	</radialGradient>
	<radialGradient id="rect15391_2_" cx="296.9619" cy="441.689" r="37.7517" gradientUnits="userSpaceOnUse">
		<stop  offset="0" style="stop-color:#888A85"/>
		<stop  offset="1" style="stop-color:#555753"/>
	</radialGradient>
	
		<path id="rect15391" fill="url(#rect15391_1_)" stroke="url(#rect15391_2_)" stroke-width="16.9678" stroke-linecap="round" stroke-linejoin="round" d="
		M274.402,174.132h102.316c1.993,0,3.609,1.615,3.609,3.609v121.752c0,1.993-1.616,3.609-3.609,3.609H274.402
		c-1.993,0-3.609-1.616-3.609-3.609V177.741C270.793,175.748,272.409,174.132,274.402,174.132z"/>
	<radialGradient id="rect15660_1_" cx="296.2813" cy="438.1772" r="38.1587" gradientUnits="userSpaceOnUse">
		<stop  offset="0" style="stop-color:#FFFFFF"/>
		<stop  offset="1" style="stop-color:#F8F8F8"/>
	</radialGradient>
	
		<path id="rect15660" fill="none" stroke="url(#rect15660_1_)" stroke-width="16.9678" stroke-linecap="round" stroke-linejoin="round" d="
		M274.409,177.276h102.512c0.259,0,0.468,0.21,0.468,0.468v121.643c0,0.258-0.209,0.468-0.468,0.468H274.409
		c-0.258,0-0.468-0.209-0.468-0.468V177.744C273.941,177.486,274.151,177.276,274.409,177.276z"/>
	<path id="path15672" sodipodi:nodetypes="cc" fill="none" stroke="#000000" stroke-width="16.7735" stroke-opacity="0.0175" d="
		M286.515,180.396v119.056"/>
	<path id="path15674" sodipodi:nodetypes="cc" fill="none" stroke="#FFFFFF" stroke-width="16.9678" stroke-opacity="0.2047" d="
		M289.638,178.908v119.405"/>
	<path id="rect15686" fill="#BABDB6" d="M301.063,191.406h61.949c0.24,0,0.434,0.092,0.434,0.205v2.73
		c0,0.113-0.193,0.205-0.434,0.205h-61.949c-0.239,0-0.433-0.092-0.433-0.205v-2.73C300.63,191.498,300.823,191.406,301.063,191.406
		z"/>
	<path id="rect15688" fill="#BABDB6" d="M301.063,197.688h61.949c0.24,0,0.434,0.092,0.434,0.206v2.729
		c0,0.114-0.193,0.206-0.434,0.206h-61.949c-0.239,0-0.433-0.092-0.433-0.206v-2.729C300.63,197.78,300.823,197.688,301.063,197.688
		z"/>
	<path id="rect15690" fill="#BABDB6" d="M301.063,203.969h61.949c0.24,0,0.434,0.092,0.434,0.206v2.73
		c0,0.113-0.193,0.206-0.434,0.206h-61.949c-0.239,0-0.433-0.092-0.433-0.206v-2.73C300.63,204.062,300.823,203.969,301.063,203.969
		z"/>
	<path id="rect15692" fill="#BABDB6" d="M301.063,210.251h61.949c0.24,0,0.434,0.092,0.434,0.206v2.73
		c0,0.113-0.193,0.205-0.434,0.205h-61.949c-0.239,0-0.433-0.092-0.433-0.205v-2.73C300.63,210.343,300.823,210.251,301.063,210.251
		z"/>
	<path id="rect15694" fill="#BABDB6" d="M301.063,216.532h61.949c0.24,0,0.434,0.092,0.434,0.206v2.73
		c0,0.114-0.193,0.206-0.434,0.206h-61.949c-0.239,0-0.433-0.092-0.433-0.206v-2.73C300.63,216.625,300.823,216.532,301.063,216.532
		z"/>
	<path id="rect15696" fill="#BABDB6" d="M301.063,222.814h61.949c0.24,0,0.434,0.092,0.434,0.206v2.73
		c0,0.113-0.193,0.206-0.434,0.206h-61.949c-0.239,0-0.433-0.092-0.433-0.206v-2.73C300.63,222.906,300.823,222.814,301.063,222.814
		z"/>
	<path id="rect15698" fill="#BABDB6" d="M301.063,229.095h61.949c0.24,0,0.434,0.092,0.434,0.206v2.73
		c0,0.113-0.193,0.206-0.434,0.206h-61.949c-0.239,0-0.433-0.092-0.433-0.206v-2.73C300.63,229.188,300.823,229.095,301.063,229.095
		z"/>
	<path id="rect15700" fill="#BABDB6" d="M301.063,235.377h61.949c0.24,0,0.434,0.092,0.434,0.205v2.73
		c0,0.113-0.193,0.206-0.434,0.206h-61.949c-0.239,0-0.433-0.092-0.433-0.206v-2.73C300.63,235.469,300.823,235.377,301.063,235.377
		z"/>
	<path id="rect15732" fill="#BABDB6" d="M300.825,241.659h27.877c0.107,0,0.195,0.092,0.195,0.205v2.73
		c0,0.114-0.088,0.206-0.195,0.206h-27.877c-0.107,0-0.195-0.092-0.195-0.206v-2.73C300.63,241.751,300.718,241.659,300.825,241.659
		z"/>
	<path id="rect15736" fill="#BABDB6" d="M301.063,254.222h61.949c0.24,0,0.434,0.092,0.434,0.205v2.73
		c0,0.113-0.193,0.205-0.434,0.205h-61.949c-0.239,0-0.433-0.092-0.433-0.205v-2.73C300.63,254.314,300.823,254.222,301.063,254.222
		z"/>
	<path id="rect15738" fill="#BABDB6" d="M301.063,260.503h61.949c0.24,0,0.434,0.092,0.434,0.206v2.73
		c0,0.113-0.193,0.206-0.434,0.206h-61.949c-0.239,0-0.433-0.092-0.433-0.206v-2.73C300.63,260.595,300.823,260.503,301.063,260.503
		z"/>
	<path id="rect15740" fill="#BABDB6" d="M301.063,266.785h61.949c0.24,0,0.434,0.092,0.434,0.205v2.73
		c0,0.113-0.193,0.206-0.434,0.206h-61.949c-0.239,0-0.433-0.092-0.433-0.206v-2.73C300.63,266.877,300.823,266.785,301.063,266.785
		z"/>
	<path id="rect15742" fill="#BABDB6" d="M301.063,273.066h61.949c0.24,0,0.434,0.092,0.434,0.206v2.73
		c0,0.113-0.193,0.206-0.434,0.206h-61.949c-0.239,0-0.433-0.092-0.433-0.206v-2.73C300.63,273.158,300.823,273.066,301.063,273.066
		z"/>
	<path id="rect15744" fill="#BABDB6" d="M300.933,279.348h43.365c0.168,0,0.303,0.092,0.303,0.206v2.73
		c0,0.113-0.135,0.205-0.303,0.205h-43.365c-0.167,0-0.303-0.092-0.303-0.205v-2.73C300.63,279.44,300.766,279.348,300.933,279.348z
		"/>
	
		<linearGradient id="path5138_1_" gradientUnits="userSpaceOnUse" x1="304.8633" y1="443.2222" x2="304.8993" y2="441.072" gradientTransform="matrix(20.7729 0 0 -21.7557 -6025.5059 9846.8008)">
		<stop  offset="0" style="stop-color:#000000"/>
		<stop  offset="1" style="stop-color:#000000;stop-opacity:0"/>
	</linearGradient>
	<path id="path5138" sodipodi:nodetypes="cccccc" opacity="0.2802" fill="url(#path5138_1_)" enable-background="new    " d="
		M325.397,241.21l-18.601-10.984l-17.926,9.828l-1.43-70.591h38.754L325.397,241.21z"/>
	
		<linearGradient id="path2204_1_" gradientUnits="userSpaceOnUse" x1="306.0771" y1="441.27" x2="306.0727" y2="443.564" gradientTransform="matrix(22.3898 0 0 -22.0413 -6550.416 9946.8887)">
		<stop  offset="0" style="stop-color:#729FCF"/>
		<stop  offset="1" style="stop-color:#3465A4"/>
	</linearGradient>
	<path id="path2204" sodipodi:nodetypes="ccccccccc" fill="url(#path2204_1_)" stroke="#204A87" stroke-width="16.9678" d="
		M283.943,168.337c0,0-0.49-7.633,7.025-7.797l26.237-0.092c3.035,0,3.833,1.792,3.833,4.199v72.384l-15.82-13.617l-15.386,13.617
		l-0.216-68.689L283.943,168.337z"/>
	
		<linearGradient id="path3668_1_" gradientUnits="userSpaceOnUse" x1="303.1572" y1="444.5952" x2="303.1572" y2="444.1561" gradientTransform="matrix(-22.3898 0 0 -23.1111 7090.2852 10439.9395)">
		<stop  offset="0" style="stop-color:#FFFFFF"/>
		<stop  offset="1" style="stop-color:#FFFFFF;stop-opacity:0"/>
	</linearGradient>
	<path id="path3668" sodipodi:nodetypes="cccccccs" opacity="0.4451" fill="url(#path3668_1_)" enable-background="new    " d="
		M285.523,167.011c-0.05-2.062,0.74-5.063,6.146-5.226l25.296-0.046c1.605,0,2.783,0.439,2.783,2.095l-0.076,22.78h-28.157
		l-0.328-19.635L285.523,167.011z"/>
	<linearGradient id="path5969_1_" gradientUnits="userSpaceOnUse" x1="308.1084" y1="439.3276" x2="308.1084" y2="442.9131">
		<stop  offset="0" style="stop-color:#FFFFFF"/>
		<stop  offset="1" style="stop-color:#FFFFFF;stop-opacity:0"/>
	</linearGradient>
	
		<path id="path5969" sodipodi:nodetypes="ccccccc" fill="none" stroke="url(#path5969_1_)" stroke-width="16.9678" stroke-opacity="0.1913" d="
		M315.521,164.908l2.879,2.368l-0.074,63.941l-13.234-11.291l-12.562,11.037l-0.013-64.641L315.521,164.908z"/>
	
		<linearGradient id="path2894_1_" gradientUnits="userSpaceOnUse" x1="307.7217" y1="444.2905" x2="307.8331" y2="444.1492" gradientTransform="matrix(16.9678 0 0 -20.1037 -4935.4043 9094.0977)">
		<stop  offset="0" style="stop-color:#FFFFFF"/>
		<stop  offset="1" style="stop-color:#FFFFFF;stop-opacity:0"/>
	</linearGradient>
	<path id="path2894" sodipodi:nodetypes="cccc" opacity="0.483" fill="url(#path2894_1_)" enable-background="new    " d="
		M291.101,169.439l-0.116-7.613c-5.583,0-5.559,5.07-5.559,7.613H291.101z"/>
	
		<linearGradient id="path2904_1_" gradientUnits="userSpaceOnUse" x1="307.8662" y1="444.4878" x2="307.8614" y2="444.3567" gradientTransform="matrix(16.9678 0 0 -27.0502 -4935.4043 12187.3496)">
		<stop  offset="0" style="stop-color:#000000"/>
		<stop  offset="1" style="stop-color:#000000;stop-opacity:0"/>
	</linearGradient>
	<path id="path2904" sodipodi:nodetypes="cccc" opacity="0.358" fill="url(#path2904_1_)" enable-background="new    " d="
		M291.101,169.439l-0.116-5.539c-6.022,0.047-5.559,5.539-5.559,5.539H291.101z"/>
</g>
</svg>
