<?xml version="1.0" encoding="utf-8"?>
<!-- Generator: Adobe Illustrator 15.0.2, SVG Export Plug-In . SVG Version: 6.00 Build 0)  -->
<!DOCTYPE svg PUBLIC "-//W3C//DTD SVG 1.1//EN" "http://www.w3.org/Graphics/SVG/1.1/DTD/svg11.dtd">
<svg version="1.1" xmlns="http://www.w3.org/2000/svg" xmlns:xlink="http://www.w3.org/1999/xlink" x="0px" y="0px" width="620px"
	 height="620px" viewBox="0 0 620 620" enable-background="new 0 0 620 620" xml:space="preserve">
<g id="Layer_2">
	<rect fill="#E2E2E2" width="620" height="620"/>
</g>
<g id="svg0" inkscape:output_extension="org.inkscape.output.svg.inkscape" xmlns:dc="http://purl.org/dc/elements/1.1/" xmlns:cc="http://creativecommons.org/ns#" xmlns:inkscape="http://www.inkscape.org/namespaces/inkscape" xmlns:rdf="http://www.w3.org/1999/02/22-rdf-syntax-ns#" xmlns:svg="http://www.w3.org/2000/svg" xmlns:sodipodi="http://sodipodi.sourceforge.net/DTD/sodipodi-0.dtd" sodipodi:docname="Ambox_clock.svg" sodipodi:docbase="C:\Documents and Settings\KevinDuke\Desktop" inkscape:version="0.46" sodipodi:version="0.32">
	
		<sodipodi:namedview  id="base" showgrid="false" showguides="true" pagecolor="#ffffff" bordercolor="#666666" borderopacity="1.0" guidetolerance="10.0" objecttolerance="10.0" inkscape:zoom="0.15907258" inkscape:cx="2196.086" inkscape:cy="-863.05456" gridtolerance="10.0" inkscape:window-width="1280" inkscape:guide-bbox="true" inkscape:current-layer="svg0" inkscape:window-y="-4" inkscape:window-x="-4" inkscape:pageshadow="2" inkscape:pageopacity="0.0" inkscape:window-height="968">
		</sodipodi:namedview>
	<defs>
		
		
			<inkscape:perspective  id="perspective117" inkscape:vp_z="620 : 310 : 1" inkscape:vp_y="0 : 1000 : 0" inkscape:vp_x="0 : 310 : 1" sodipodi:type="inkscape:persp3d" inkscape:persp3d-origin="310 : 206.66667 : 1">
			</inkscape:perspective>
		
			<inkscape:perspective  id="perspective85" inkscape:vp_z="620 : 310 : 1" inkscape:vp_y="0 : 1000 : 0" inkscape:vp_x="0 : 310 : 1" sodipodi:type="inkscape:persp3d" inkscape:persp3d-origin="310 : 206.66667 : 1">
			</inkscape:perspective>
		
			<inkscape:perspective  id="perspective3795" inkscape:vp_z="620 : 310 : 1" inkscape:vp_y="0 : 1000 : 0" inkscape:vp_x="0 : 310 : 1" sodipodi:type="inkscape:persp3d" inkscape:persp3d-origin="310 : 206.66667 : 1">
			</inkscape:perspective>
		
			<inkscape:perspective  id="perspective2691" inkscape:vp_z="620 : 310 : 1" inkscape:vp_y="0 : 1000 : 0" inkscape:vp_x="0 : 310 : 1" sodipodi:type="inkscape:persp3d" inkscape:persp3d-origin="310 : 206.66667 : 1">
			</inkscape:perspective>
		
			<inkscape:perspective  id="perspective2946" inkscape:vp_z="620 : 310 : 1" inkscape:vp_y="0 : 1000 : 0" inkscape:vp_x="0 : 310 : 1" sodipodi:type="inkscape:persp3d" inkscape:persp3d-origin="310 : 206.66667 : 1">
			</inkscape:perspective>
		
			<inkscape:perspective  id="perspective3437" inkscape:vp_z="620 : 310 : 1" inkscape:vp_y="0 : 1000 : 0" inkscape:vp_x="0 : 310 : 1" sodipodi:type="inkscape:persp3d" inkscape:persp3d-origin="310 : 206.66667 : 1">
			</inkscape:perspective>
		
			<inkscape:perspective  id="perspective3321" inkscape:vp_z="620 : 310 : 1" inkscape:vp_y="0 : 1000 : 0" inkscape:vp_x="0 : 310 : 1" sodipodi:type="inkscape:persp3d" inkscape:persp3d-origin="310 : 206.66667 : 1">
			</inkscape:perspective>
		
			<inkscape:perspective  id="perspective23" inkscape:vp_z="620 : 310 : 1" inkscape:vp_y="0 : 1000 : 0" inkscape:vp_x="0 : 310 : 1" sodipodi:type="inkscape:persp3d" inkscape:persp3d-origin="310 : 206.66667 : 1">
			</inkscape:perspective>
		
			<inkscape:perspective  id="perspective3399" inkscape:vp_z="620 : 310 : 1" inkscape:vp_y="0 : 1000 : 0" inkscape:vp_x="0 : 310 : 1" sodipodi:type="inkscape:persp3d" inkscape:persp3d-origin="310 : 206.66667 : 1">
			</inkscape:perspective>
		
			<inkscape:perspective  id="perspective46" inkscape:vp_z="40 : 20 : 1" inkscape:vp_y="0 : 1000 : 0" inkscape:vp_x="0 : 20 : 1" sodipodi:type="inkscape:persp3d" inkscape:persp3d-origin="20 : 13.333333 : 1">
			</inkscape:perspective>
	</defs>
	<path id="path3099" opacity="0.1" fill="none" enable-background="new    " d="M1883.83,809.035c0,55.32-127.59,100.2-284.96,100.2
		c-157.36,0-284.95-44.87-284.95-100.2c0-55.34,127.59-100.189,284.95-100.189C1756.24,708.846,1883.83,753.695,1883.83,809.035z"/>
	<path id="text2466" sodipodi:nodetypes="cccccccscsccccccccccccccccc" fill="#FFFFFF" d="M337.84,361.098h-79.511V350.15
		c0-12.215,2.423-23.014,7.268-32.398c4.846-9.533,15.051-21.598,30.615-36.195l14.096-12.959
		c8.369-7.745,14.463-15.044,18.28-21.896c3.965-6.852,5.947-13.704,5.947-20.556c0-10.426-3.524-18.544-10.572-24.354
		c-7.048-5.958-16.886-8.937-29.514-8.937c-11.894,0-24.742,2.533-38.544,7.597c-13.802,4.916-28.192,12.289-43.169,22.12v-70.157
		c17.767-6.256,33.992-10.873,48.676-13.853c14.683-2.979,28.853-4.468,42.508-4.469c35.827,0,63.139,7.448,81.934,22.343
		c18.795,14.747,28.192,36.345,28.192,64.794c0,14.598-2.863,27.706-8.59,39.324c-5.727,11.47-15.491,23.833-29.293,37.089
		l-14.097,12.735c-9.984,9.235-16.519,16.684-19.603,22.344c-3.083,5.511-4.625,11.618-4.625,18.32V361.098 M263.313,407.59
		l71.066-0.879l1.298,66.995c0,0-77.502,0-73.021,0"/>
</g>
</svg>
