<?xml version="1.0" encoding="utf-8"?>
<!-- Generator: Adobe Illustrator 15.0.2, SVG Export Plug-In . SVG Version: 6.00 Build 0)  -->
<!DOCTYPE svg PUBLIC "-//W3C//DTD SVG 1.1//EN" "http://www.w3.org/Graphics/SVG/1.1/DTD/svg11.dtd">
<svg version="1.1" id="Layer_1" xmlns="http://www.w3.org/2000/svg" xmlns:xlink="http://www.w3.org/1999/xlink" x="0px" y="0px"
	 width="200px" height="200px" viewBox="0 0 200 200" enable-background="new 0 0 200 200" xml:space="preserve">
<g id="Layer_2">
	<rect fill="#D9D9E8" width="200" height="199.938"/>
</g>
<g id="svg2" sodipodi:docname="Silver - replace this image male.svg" inkscape:version="0.46" sodipodi:version="0.32" xmlns:dc="http://purl.org/dc/elements/1.1/" xmlns:cc="http://creativecommons.org/ns#" xmlns:rdf="http://www.w3.org/1999/02/22-rdf-syntax-ns#" xmlns:svg="http://www.w3.org/2000/svg" xmlns:sodipodi="http://sodipodi.sourceforge.net/DTD/sodipodi-0.dtd" xmlns:inkscape="http://www.inkscape.org/namespaces/inkscape" inkscape:output_extension="org.inkscape.output.svg.inkscape">
	
		<sodipodi:namedview  id="base" inkscape:window-width="640" inkscape:pageopacity="0.0" inkscape:pageshadow="2" inkscape:window-height="480" showgrid="false" pagecolor="#ffffff" bordercolor="#666666" borderopacity="1.0" objecttolerance="10.0" gridtolerance="10.0" guidetolerance="10.0">
		</sodipodi:namedview>
	<defs>
		
		
			<inkscape:perspective  id="perspective8" inkscape:vp_z="200 : 100 : 1" inkscape:vp_y="0 : 1000 : 0" inkscape:vp_x="0 : 100 : 1" sodipodi:type="inkscape:persp3d" inkscape:persp3d-origin="100 : 66.666667 : 1">
			</inkscape:perspective>
	</defs>
	<path id="path4" sodipodi:nodetypes="cccscccsscsssssssccc" fill="#FFFFFF" d="M3.084,201c0.149-10.77,0.318-19.416,0-33.378
		c7.021-8.794,31.74-12.828,38.493-15.243c8.714-6.504,18.587-12.04,27.098-16.939c4.7-2.707,4.761-11.982,4.417-18.213
		c-1.562-8.822-2.387-16.431-8.685-22.909c-0.353-1.85-1.381-6.094-4.474-11.639c-2.082-9.318-10.286-20.857-8.224-26.777
		c5.489-15.765,0.693-22.171,4.064-23.519c7.688-3.073,9.766-9.793,16.807-16.542c20.571-3.918,17.409-14.353,32.779-12.337
		c19.051,2.499,8.559,5.315,21.625,11.955c16.053,8.157,6.486,8.983,21.143,30.58c8.701,12.824-8.25,13.698-3.857,25.047
		c4.059,10.483-5.508,12.271-10.332,23.743c-4.629,11.006-7.535,14.241-2.205,28.75c4.951,13.472,13.168,7.315,31.729,27.494
		c4.714,5.122,21.646-1.079,33.306,13.883c-0.008,7.67,0.162,19.698,0.215,36.044C144.725,200.813,3.084,201,3.084,201z"/>
</g>
</svg>
